# xmcd
#
# Track frame offsets: 
#        150
#        24529
#        41471
#        66571
#        90174
#        111751
#        127794
#        162234
#        188871
#        230936
#        254639
#        287416
#
# Disc length: 4130 seconds
#
# Revision: 0
# Processed by: cddbd v1.5.2PL0 Copyright (c) Steve Scherf et al.
# Submitted via: ExactAudioCopy v1.3
#
DISCID=a210200c
DTITLE=Wolfe - Delaware Crossing
DYEAR=2004
DGENRE=Electric Blues, Blues Rock
TTITLE0=Stranger Blues
TTITLE1=No Returns, No Exchanges
TTITLE2=See What Love Can Do
TTITLE3=Tumblin' Down
TTITLE4=One Last Love
TTITLE5=Thing Get Better
TTITLE6=Black Hearted Woman
TTITLE7=Beg Forgiveness
TTITLE8=Love Gone Bad
TTITLE9=Crowded In My Soul
TTITLE10=Wolfe Jam
TTITLE11=Gates Of Heaven
EXTD=
EXTT0=
EXTT1=
EXTT2=
EXTT3=
EXTT4=
EXTT5=
EXTT6=
EXTT7=
EXTT8=
EXTT9=
EXTT10=
EXTT11=
PLAYORDER=
